HIERARCHY
ROOT Root
{
  OFFSET 0.0 0.0 0.0
  CHANNELS 6 Xposition Yposition Zposition Zrotation Yrotation Xrotation
  JOINT Hips
  {
    OFFSET 0.0 100.0 0.0
    CHANNELS 6 Xposition Yposition Zposition Zrotation Yrotation Xrotation
    JOINT Spine1
    {
      OFFSET 5.003913 -0.037094 -0.013727
      CHANNELS 3 Zrotation Yrotation Xrotation
      JOINT Spine2
      {
        OFFSET 7.125363 -1e-06 0.0
        CHANNELS 3 Zrotation Yrotation Xrotation
        JOINT Chest
        {
          OFFSET 7.594027 1e-06 0.0
          CHANNELS 3 Zrotation Yrotation Xrotation
          JOINT Neck1
          {
            OFFSET 26.313086 -0.460272 -0.181672
            CHANNELS 3 Zrotation Yrotation Xrotation
            JOINT Neck2
            {
              OFFSET 8.045911 0.0 0.0
              CHANNELS 3 Zrotation Yrotation Xrotation
              JOINT Head
              {
                OFFSET 6.432774 0.0 0.0
                CHANNELS 3 Zrotation Yrotation Xrotation
                JOINT HeadEnd
                {
                  OFFSET 16.169773 0.06451 0.00362
                  CHANNELS 3 Zrotation Yrotation Xrotation
                }
                JOINT Jaw
                {
                  OFFSET 0.108741 3.12938 0.002639
                  CHANNELS 3 Zrotation Yrotation Xrotation
                }
                JOINT LeftEye
                {
                  OFFSET 4.45173 8.166359 3.206392
                  CHANNELS 3 Zrotation Yrotation Xrotation
                }
                JOINT RightEye
                {
                  OFFSET 4.436895 8.135758 -3.222429
                  CHANNELS 3 Zrotation Yrotation Xrotation
                }
              }
            }
          }
          JOINT LeftShoulder
          {
            OFFSET 23.218927 5.195579 1.621656
            CHANNELS 3 Zrotation Yrotation Xrotation
            JOINT LeftArm
            {
              OFFSET 15.902118 2e-06 -2e-06
              CHANNELS 3 Zrotation Yrotation Xrotation
              JOINT LeftForeArm
              {
                OFFSET 28.739307 0.0 -1e-06
                CHANNELS 3 Zrotation Yrotation Xrotation
                JOINT LeftHand
                {
                  OFFSET 27.093981 -4e-06 0.0
                  CHANNELS 3 Zrotation Yrotation Xrotation
                  JOINT LeftHandThumb1
                  {
                    OFFSET 2.276781 3.380274 0.83384
                    CHANNELS 3 Zrotation Yrotation Xrotation
                    JOINT LeftHandThumb2
                    {
                      OFFSET 4.705309 -1e-06 -1e-06
                      CHANNELS 3 Zrotation Yrotation Xrotation
                      JOINT LeftHandThumb3
                      {
                        OFFSET 2.798515 0.0 3e-06
                        CHANNELS 3 Zrotation Yrotation Xrotation
                        JOINT LeftHandThumbEnd
                        {
                          OFFSET 3.180793 4e-06 -4e-06
                          CHANNELS 3 Zrotation Yrotation Xrotation
                        }
                      }
                    }
                  }
                  JOINT LeftHandIndex1
                  {
                    OFFSET 3.247786 2.352677 0.137192
                    CHANNELS 3 Zrotation Yrotation Xrotation
                    JOINT LeftHandIndex2
                    {
                      OFFSET 6.367095 1e-06 0.0
                      CHANNELS 3 Zrotation Yrotation Xrotation
                      JOINT LeftHandIndex3
                      {
                        OFFSET 3.662364 0.0 0.0
                        CHANNELS 3 Zrotation Yrotation Xrotation
                        JOINT LeftHandIndex4
                        {
                          OFFSET 2.329242 4e-06 -4e-06
                          CHANNELS 3 Zrotation Yrotation Xrotation
                          JOINT LeftHandIndexEnd
                          {
                            OFFSET 2.767823 1e-06 0.0
                            CHANNELS 3 Zrotation Yrotation Xrotation
                          }
                        }
                      }
                    }
                  }
                  JOINT LeftHandMiddle1
                  {
                    OFFSET 3.163612 0.945023 -0.406112
                    CHANNELS 3 Zrotation Yrotation Xrotation
                    JOINT LeftHandMiddle2
                    {
                      OFFSET 6.276789 3e-06 0.0
                      CHANNELS 3 Zrotation Yrotation Xrotation
                      JOINT LeftHandMiddle3
                      {
                        OFFSET 4.35652 -1e-06 4e-06
                        CHANNELS 3 Zrotation Yrotation Xrotation
                        JOINT LeftHandMiddle4
                        {
                          OFFSET 2.996877 0.0 8e-06
                          CHANNELS 3 Zrotation Yrotation Xrotation
                          JOINT LeftHandMiddleEnd
                          {
                            OFFSET 2.323256 3e-06 -4e-06
                            CHANNELS 3 Zrotation Yrotation Xrotation
                          }
                        }
                      }
                    }
                  }
                  JOINT LeftHandRing1
                  {
                    OFFSET 2.882606 -0.309162 0.107445
                    CHANNELS 3 Zrotation Yrotation Xrotation
                    JOINT LeftHandRing2
                    {
                      OFFSET 6.033198 0.0 4e-06
                      CHANNELS 3 Zrotation Yrotation Xrotation
                      JOINT LeftHandRing3
                      {
                        OFFSET 4.350578 3e-06 0.0
                        CHANNELS 3 Zrotation Yrotation Xrotation
                        JOINT LeftHandRing4
                        {
                          OFFSET 2.651321 2e-06 -7e-06
                          CHANNELS 3 Zrotation Yrotation Xrotation
                          JOINT LeftHandRingEnd
                          {
                            OFFSET 1.937663 1e-06 -4e-06
                            CHANNELS 3 Zrotation Yrotation Xrotation
                          }
                        }
                      }
                    }
                  }
                  JOINT LeftHandPinky1
                  {
                    OFFSET 2.865315 -1.525436 0.575687
                    CHANNELS 3 Zrotation Yrotation Xrotation
                    JOINT LeftHandPinky2
                    {
                      OFFSET 5.54936 1e-06 -8e-06
                      CHANNELS 3 Zrotation Yrotation Xrotation
                      JOINT LeftHandPinky3
                      {
                        OFFSET 3.070974 0.0 -4e-06
                        CHANNELS 3 Zrotation Yrotation Xrotation
                        JOINT LeftHandPinky4
                        {
                          OFFSET 1.549672 1e-06 0.0
                          CHANNELS 3 Zrotation Yrotation Xrotation
                          JOINT LeftHandPinkyEnd
                          {
                            OFFSET 1.952123 0.0 0.0
                            CHANNELS 3 Zrotation Yrotation Xrotation
                          }
                        }
                      }
                    }
                  }
                }
              }
            }
          }
          JOINT RightShoulder
          {
            OFFSET 23.161716 5.296122 -1.380114
            CHANNELS 3 Zrotation Yrotation Xrotation
            JOINT RightArm
            {
              OFFSET -16.027195 -2e-06 1.1e-05
              CHANNELS 3 Zrotation Yrotation Xrotation
              JOINT RightForeArm
              {
                OFFSET -28.736639 4e-06 2e-06
                CHANNELS 3 Zrotation Yrotation Xrotation
                JOINT RightHand
                {
                  OFFSET -27.133619 6e-06 0.0
                  CHANNELS 3 Zrotation Yrotation Xrotation
                  JOINT RightHandThumb1
                  {
                    OFFSET -2.274328 -3.351035 -0.83067
                    CHANNELS 3 Zrotation Yrotation Xrotation
                    JOINT RightHandThumb2
                    {
                      OFFSET -4.703594 -3e-06 2e-06
                      CHANNELS 3 Zrotation Yrotation Xrotation
                      JOINT RightHandThumb3
                      {
                        OFFSET -2.794935 -4e-06 -3e-06
                        CHANNELS 3 Zrotation Yrotation Xrotation
                        JOINT RightHandThumbEnd
                        {
                          OFFSET -3.183852 4e-06 1e-06
                          CHANNELS 3 Zrotation Yrotation Xrotation
                        }
                      }
                    }
                  }
                  JOINT RightHandIndex1
                  {
                    OFFSET -3.253496 -2.33755 -0.127667
                    CHANNELS 3 Zrotation Yrotation Xrotation
                    JOINT RightHandIndex2
                    {
                      OFFSET -6.344434 0.0 0.0
                      CHANNELS 3 Zrotation Yrotation Xrotation
                      JOINT RightHandIndex3
                      {
                        OFFSET -3.654871 0.0 -8e-06
                        CHANNELS 3 Zrotation Yrotation Xrotation
                        JOINT RightHandIndex4
                        {
                          OFFSET -2.327586 -1e-06 0.0
                          CHANNELS 3 Zrotation Yrotation Xrotation
                          JOINT RightHandIndexEnd
                          {
                            OFFSET -2.770001 3e-06 8e-06
                            CHANNELS 3 Zrotation Yrotation Xrotation
                          }
                        }
                      }
                    }
                  }
                  JOINT RightHandMiddle1
                  {
                    OFFSET -3.168223 -0.944764 0.411762
                    CHANNELS 3 Zrotation Yrotation Xrotation
                    JOINT RightHandMiddle2
                    {
                      OFFSET -6.266691 -1e-06 -4e-06
                      CHANNELS 3 Zrotation Yrotation Xrotation
                      JOINT RightHandMiddle3
                      {
                        OFFSET -4.348901 0.0 0.0
                        CHANNELS 3 Zrotation Yrotation Xrotation
                        JOINT RightHandMiddle4
                        {
                          OFFSET -3.00024 2e-06 -4e-06
                          CHANNELS 3 Zrotation Yrotation Xrotation
                          JOINT RightHandMiddleEnd
                          {
                            OFFSET -2.321477 -4e-06 -4e-06
                            CHANNELS 3 Zrotation Yrotation Xrotation
                          }
                        }
                      }
                    }
                  }
                  JOINT RightHandRing1
                  {
                    OFFSET -2.885654 0.293261 -0.119232
                    CHANNELS 3 Zrotation Yrotation Xrotation
                    JOINT RightHandRing2
                    {
                      OFFSET -6.032835 -1e-06 -4e-06
                      CHANNELS 3 Zrotation Yrotation Xrotation
                      JOINT RightHandRing3
                      {
                        OFFSET -4.33881 0.0 -4e-06
                        CHANNELS 3 Zrotation Yrotation Xrotation
                        JOINT RightHandRing4
                        {
                          OFFSET -2.654903 -4e-06 -4e-06
                          CHANNELS 3 Zrotation Yrotation Xrotation
                          JOINT RightHandRingEnd
                          {
                            OFFSET -1.935122 0.0 4e-06
                            CHANNELS 3 Zrotation Yrotation Xrotation
                          }
                        }
                      }
                    }
                  }
                  JOINT RightHandPinky1
                  {
                    OFFSET -2.866241 1.503904 -0.60527
                    CHANNELS 3 Zrotation Yrotation Xrotation
                    JOINT RightHandPinky2
                    {
                      OFFSET -5.553177 -2e-06 0.0
                      CHANNELS 3 Zrotation Yrotation Xrotation
                      JOINT RightHandPinky3
                      {
                        OFFSET -3.062664 -1e-06 -4e-06
                        CHANNELS 3 Zrotation Yrotation Xrotation
                        JOINT RightHandPinky4
                        {
                          OFFSET -1.546529 2e-06 4e-06
                          CHANNELS 3 Zrotation Yrotation Xrotation
                          JOINT RightHandPinkyEnd
                          {
                            OFFSET -1.952341 0.0 -4e-06
                            CHANNELS 3 Zrotation Yrotation Xrotation
                          }
                        }
                      }
                    }
                  }
                }
              }
            }
          }
        }
      }
    }
    JOINT LeftLeg
    {
      OFFSET -8.443107 2.567604 10.043214
      CHANNELS 3 Zrotation Yrotation Xrotation
      JOINT LeftShin
      {
        OFFSET 43.229198 1e-06 -1e-06
        CHANNELS 3 Zrotation Yrotation Xrotation
        JOINT LeftFoot
        {
          OFFSET 42.298611 1e-06 1e-06
          CHANNELS 3 Zrotation Yrotation Xrotation
          JOINT LeftToeBase
          {
            OFFSET 14.165858 1e-06 0.0
            CHANNELS 3 Zrotation Yrotation Xrotation
            JOINT LeftToeEnd
            {
              OFFSET 6.7141 -0.234461 0.0
              CHANNELS 3 Zrotation Yrotation Xrotation
            }
          }
        }
      }
    }
    JOINT RightLeg
    {
      OFFSET -8.303923 2.592729 -10.047278
      CHANNELS 3 Zrotation Yrotation Xrotation
      JOINT RightShin
      {
        OFFSET -43.369682 0.0 1e-06
        CHANNELS 3 Zrotation Yrotation Xrotation
        JOINT RightFoot
        {
          OFFSET -42.260784 4e-06 2e-06
          CHANNELS 3 Zrotation Yrotation Xrotation
          JOINT RightToeBase
          {
            OFFSET -14.222245 -2e-06 -1e-06
            CHANNELS 3 Zrotation Yrotation Xrotation
            JOINT RightToeEnd
            {
              OFFSET -6.660062 0.232574 -2e-06
              CHANNELS 3 Zrotation Yrotation Xrotation
            }
          }
        }
      }
    }
  }
}
MOTION
Frames: 4
Frame Time: 0.03333333333333333
0.0 0.0 0.0 0.0 -0.0 0.0 -1.596494 47.585258 176.876465 90.945953 -44.704056 88.778847 15.635319 -2.283567 1.869271 -4.652911 -0.803433 3.047966 26.076202 -7.27073 -0.471141 29.254984 -1.158946 2.625549 -2.539636 -0.689301 -0.617023 -25.184862 -4.941996 -1.269908 6e-06 1e-06 0.0 -0.21036 0.014896 0.032116 0.035724 -0.01445 0.162602 0.07539 0.038732 -0.103443 62.457634 -89.069168 -49.785297 73.501488 -8.300539 -18.786243 18.882053 -0.900293 -0.006044 69.197266 71.686356 70.368713 17.636627 -26.322731 52.411198 -19.466665 -14.395602 29.410395 -2e-06 -8.774822 -1e-06 15.59699 -18.425215 6.304422 -0.609778 -1.795653 -3.889328 -4.807087 -11.04681 -2.93785 5e-06 -20.976015 -0.0 -5.019969 -25.033556 -4.031882 6e-06 1e-06 1e-06 -10.634535 -5.686969 -3.565588 10.573276 -17.922951 -3.113901 3e-06 -13.821209 1e-06 -0.501774 -31.181501 -4.027017 -11.741316 -59.843941 8.055498 -13.982715 -7.150197 -2.875043 13.77273 -8.401494 -3.218242 0.347735 -34.211544 0.771655 -0.963028 -17.73337 2.621021 -0.0 0.0 -0.0 -17.34642 -20.095217 -4.201784 21.757559 -1.638376 3.866428 2e-06 -6.338822 1e-06 -1.697587 -22.591742 -6.194007 -0.0 -5e-06 -2e-06 -168.356003 -66.775764 -3.790972 72.112114 -0.537055 -49.963352 14.256284 -0.835415 -0.183942 27.729918 56.060383 30.889624 22.182106 -20.375893 49.933315 -16.701815 -16.74353 28.47653 -5e-06 -12.6906 1e-06 17.033289 -17.740818 2.312008 -0.105919 -1.513857 -4.275881 -5.03904 -5.61287 -2.953557 4e-06 -11.020519 -2e-06 -6.111296 -15.895324 -3.84047 0.0 -1e-06 0.0 -10.283369 -5.680288 -4.341837 11.028294 -11.3024 -2.372633 -1.384267 -14.238574 -6.320121 -0.625437 -26.924181 -3.827601 -3.869855 -51.054642 -4.129893 -13.708523 -7.363476 -3.720938 18.141148 -14.052734 -3.242676 6e-06 -18.787264 -2e-06 -0.429711 -8.456039 2.555503 0.0 1e-06 -0.0 -15.923532 -20.094479 -5.473586 30.41921 -7.190823 1.735925 3e-06 -8.162922 -1e-06 -1.861902 -22.861464 -6.167941 -1e-06 -2e-06 -1e-06 103.315689 -3.823184 12.916596 125.673218 0.958282 0.539964 -24.852894 22.405458 6.262807 0.279029 0.903874 2.633533 -0.999999 0.0 0.0 -21.119076 3.099693 8.900103 76.465767 0.750002 -0.940321 -34.537918 21.633219 -6.01791 -0.80444 0.26553 1.582799 -1.000002 0.0 -0.0 
0.0 0.0 0.0 0.0 -0.0 0.0 -0.881739 46.647625 179.784927 91.438889 -45.048775 87.118057 14.976523 -2.439325 1.857556 -4.987512 -0.713815 3.050469 25.480587 -7.374286 -0.273165 29.885698 -1.45789 2.401857 -2.478355 -0.663597 -0.184331 -25.695953 -4.962432 -0.532715 6e-06 -1e-06 0.0 -0.209587 0.018435 0.02865 0.008342 -0.013215 0.165843 0.096716 0.03965 -0.113781 146.303055 -88.899796 -133.125107 71.318283 -11.596601 -18.171057 20.861147 -0.608031 -0.067124 72.368324 71.326775 74.642487 17.636633 -26.322737 52.411209 -19.46666 -14.395598 29.410395 -2e-06 -8.77482 -1e-06 15.775325 -18.407728 6.178109 -0.609777 -1.795654 -3.889328 -4.807087 -11.046809 -2.93785 5e-06 -20.976017 1e-06 -5.019969 -25.033556 -4.031878 5e-06 1e-06 -1e-06 -10.634535 -5.686969 -3.565587 10.573277 -17.922951 -3.1139 3e-06 -13.821209 1e-06 -0.501776 -31.181505 -4.027016 -11.382003 -59.586456 7.550757 -13.982714 -7.150198 -2.875043 13.772729 -8.401491 -3.218241 0.347734 -34.211544 0.771655 -0.963029 -17.73337 2.621021 0.0 -0.0 -0.0 -17.34642 -20.095217 -4.201783 21.757557 -1.638374 3.866427 1e-06 -6.338824 1e-06 -1.697589 -22.591742 -6.194004 -0.0 -4e-06 -1e-06 -171.104553 -66.300339 -1.550809 75.637466 -2.762157 -49.271729 14.474042 -0.728744 -0.160286 28.370302 57.475044 32.166412 22.182116 -20.375887 49.9333 -16.701809 -16.743523 28.476521 -2e-06 -12.690598 -1e-06 17.056904 -17.788658 2.369779 -0.10592 -1.513857 -4.275881 -5.039041 -5.612873 -2.953557 4e-06 -11.020525 -1e-06 -6.111298 -15.895336 -3.840471 -0.0 -2e-06 0.0 -10.283371 -5.68029 -4.341838 11.028292 -11.302404 -2.372632 -1.384269 -14.238582 -6.32012 -0.62544 -26.924194 -3.827601 -4.109303 -51.30283 -3.896497 -13.708526 -7.363477 -3.720938 18.141148 -14.052742 -3.242673 6e-06 -18.787273 -3e-06 -0.429712 -8.456043 2.555503 0.0 1e-06 0.0 -15.923536 -20.094484 -5.473583 30.41921 -7.190826 1.735929 4e-06 -8.162929 -2e-06 -1.8619 -22.861475 -6.167945 -1e-06 -2e-06 -1e-06 103.994385 -3.531601 11.748428 125.457077 1.260014 0.649092 -25.270651 24.327539 7.789403 0.538375 0.863614 2.51274 -0.999999 0.0 -0.0 -17.787731 1.42566 8.499377 72.065063 0.001736 -0.776232 -33.290993 21.714174 -5.556592 -0.057397 0.301876 1.583891 -1.000002 -0.0 -0.0 
0.0 0.0 0.0 0.0 -0.0 0.0 -0.29271 46.080574 182.865768 92.551987 -46.209419 86.722794 14.19075 -2.475431 1.669209 -5.307 -0.72193 2.709961 24.856754 -7.26579 -0.732169 29.776043 -0.925293 2.435813 -2.469912 -0.778563 -0.269397 -26.005135 -4.920771 -0.338927 6e-06 -1e-06 0.0 -0.222684 0.022805 0.013413 -0.098666 -0.007158 0.134585 0.016881 0.038921 -0.111695 153.492325 -87.730133 -140.179596 68.669609 -15.200822 -18.430178 23.83296 -0.389781 -0.132869 74.104111 70.089363 77.324501 17.63662 -26.322729 52.411194 -19.466656 -14.395598 29.410385 -1e-06 -8.774819 0.0 15.992359 -18.395597 6.044598 -0.609776 -1.795653 -3.889327 -4.807088 -11.046805 -2.937849 4e-06 -20.976011 2e-06 -5.019969 -25.033552 -4.031881 6e-06 -0.0 0.0 -10.634529 -5.686969 -3.565586 10.573272 -17.922947 -3.113902 2e-06 -13.821206 1e-06 -0.501778 -31.181498 -4.027013 -11.329734 -59.560123 7.32503 -13.982711 -7.150197 -2.875041 13.772726 -8.401491 -3.218241 0.347732 -34.21154 0.771654 -0.963029 -17.733366 2.621018 0.0 -0.0 -0.0 -17.346413 -20.095211 -4.20178 21.757555 -1.638377 3.866424 1e-06 -6.33882 1e-06 -1.697589 -22.59174 -6.194006 -1e-06 -6e-06 -1e-06 -175.190277 -66.182617 2.02459 79.099236 -4.965127 -48.964355 14.818702 -0.670707 -0.090124 31.085312 59.434471 35.437782 22.182112 -20.375885 49.933296 -16.701811 -16.743526 28.476526 -2e-06 -12.690598 0.0 16.681929 -17.771416 2.536011 -0.105919 -1.513855 -4.275881 -5.03904 -5.61287 -2.953556 4e-06 -11.02052 -2e-06 -6.111296 -15.895328 -3.840471 0.0 -1e-06 1e-06 -10.283368 -5.680285 -4.341839 11.028294 -11.302405 -2.372634 -1.384268 -14.238577 -6.32012 -0.625437 -26.924183 -3.8276 -4.274898 -51.118362 -3.835133 -13.708523 -7.363474 -3.720938 18.141146 -14.052733 -3.242674 6e-06 -18.787266 -2e-06 -0.429711 -8.45604 2.555503 0.0 -0.0 -0.0 -15.923531 -20.094477 -5.473584 30.419205 -7.190823 1.735924 4e-06 -8.162921 -1e-06 -1.8619 -22.861464 -6.167941 -1e-06 -3e-06 -1e-06 105.092331 -2.089458 10.215407 125.268936 1.493068 0.614843 -27.724024 24.505444 7.103786 0.754274 0.799996 2.55411 -0.999999 0.0 -0.0 -14.938622 -0.971742 6.651042 66.587746 -0.738939 -0.554572 -31.461248 21.903933 -5.055232 0.786313 0.311368 1.603144 -1.000003 1e-06 -0.0 
0.0 0.0 0.0 0.0 -0.0 0.0 0.130561 46.157829 185.954544 94.274521 -47.794384 86.741432 13.369305 -2.595756 1.762225 -5.616953 -0.674596 2.036707 24.45878 -7.164715 -1.281302 28.996004 0.190813 2.424402 -2.481459 -0.831332 -0.850427 -26.144617 -5.173383 -0.622741 6e-06 0.0 -0.0 -0.199443 0.080667 -0.002578 -0.13314 0.052104 0.102042 -0.027811 0.097602 -0.108852 149.544968 -86.608406 -136.394592 66.689537 -18.731758 -19.65543 27.185591 -0.135788 -0.110532 72.505547 68.421471 75.583351 17.636625 -26.32272 52.411179 -19.466656 -14.395596 29.410381 -2e-06 -8.774817 -1e-06 15.800158 -18.27474 5.914441 -0.609775 -1.795653 -3.889327 -4.807086 -11.046808 -2.937849 7e-06 -20.976011 -0.0 -5.019966 -25.033545 -4.031881 6e-06 1e-06 -0.0 -10.634529 -5.686967 -3.565588 10.573274 -17.922945 -3.113901 3e-06 -13.821203 1e-06 -0.501773 -31.181494 -4.027015 -11.034863 -59.333637 6.770965 -13.98271 -7.150194 -2.875043 13.77273 -8.401491 -3.218241 0.347739 -34.211536 0.771653 -0.963026 -17.733362 2.621019 0.0 -0.0 -0.0 -17.346413 -20.095205 -4.201783 21.757555 -1.638378 3.86643 1e-06 -6.338821 1e-06 -1.697585 -22.59173 -6.194006 -0.0 -4e-06 -2e-06 -179.230789 -66.42247 6.198265 81.652382 -6.637096 -49.896694 15.070673 -0.913913 -0.017411 37.266155 61.016155 41.698036 22.182112 -20.375883 49.933308 -16.701815 -16.743528 28.47653 -3e-06 -12.690601 -1e-06 15.918955 -17.693483 2.863497 -0.105919 -1.513856 -4.27588 -5.03904 -5.61287 -2.953557 5e-06 -11.020521 -3e-06 -6.111295 -15.895328 -3.84047 0.0 -1e-06 1e-06 -10.283369 -5.680285 -4.341838 11.028295 -11.302406 -2.372633 -1.384268 -14.238575 -6.32012 -0.625435 -26.924183 -3.827601 -4.435954 -50.647938 -3.684803 -13.708523 -7.363473 -3.720938 18.14115 -14.052738 -3.242675 7e-06 -18.78727 -3e-06 -0.429712 -8.456039 2.555504 0.0 1e-06 -0.0 -15.923531 -20.094477 -5.473586 30.419207 -7.190825 1.735926 3e-06 -8.162924 -0.0 -1.8619 -22.861467 -6.167941 -1e-06 -1e-06 -1e-06 106.362167 -0.102677 8.430651 124.138268 1.634451 0.524098 -30.06636 23.270462 4.462253 0.095437 0.862975 2.590518 -1.0 -0.0 0.0 -12.318835 -3.497031 4.131894 59.931816 -1.453151 -0.334072 -28.735806 22.395451 -4.967557 2.697926 0.224548 1.649341 -1.000002 -1e-06 -0.0 
